<svg xmlns="http://www.w3.org/2000/svg" width="564.996" height="546.55" viewBox="0 0 564.996 546.55">
  <g id="Grupo_169" data-name="Grupo 169" transform="translate(-1085.875 -1278)">
    <g id="Grupo_166" data-name="Grupo 166" transform="translate(-29 93)">
      <rect id="Retângulo_233" data-name="Retângulo 233" width="241.996" height="564.996" rx="23" transform="translate(1114.875 1731.55) rotate(-90)" fill="#2a7f8a"/>
      <g id="Grupo_162" data-name="Grupo 162" transform="translate(1318.234 1532.476)">
        <g id="União_1" data-name="União 1" transform="translate(0 0)" fill="none">
          <path d="M36.921,58.5H22a22,22,0,0,1-22-22V22A22,22,0,0,1,22,0H72.773a22,22,0,0,1,22,22V36.5a22,22,0,0,1-22,22H48.231a4.947,4.947,0,0,1-1.706,2.614l-1.472,1.182a4.913,4.913,0,0,1-3.1,1.115A5.019,5.019,0,0,1,36.921,58.5Z" stroke="none"/>
          <path d="M 42.8818359375 55.24386215209961 L 43.60422515869141 52.49641418457031 L 48.23057174682617 52.49641418457031 L 72.77310180664063 52.49641418457031 C 81.59531402587891 52.49641418457031 88.77271270751953 45.31861114501953 88.77271270751953 36.49590301513672 L 88.77271270751953 21.99959373474121 C 88.77271270751953 13.17737674713135 81.59531402587891 5.99999475479126 72.77310180664063 5.99999475479126 L 21.99960708618164 5.99999475479126 C 13.17738914489746 5.99999475479126 6.000007152557373 13.17737674713135 6.000007152557373 21.99959373474121 L 6.000007152557373 36.49590301513672 C 6.000007152557373 45.31861114501953 13.17738914489746 52.49641418457031 21.99960708618164 52.49641418457031 L 36.92139053344727 52.49641418457031 L 42.84804534912109 52.49641418457031 L 42.8818359375 55.24386215209961 M 41.95013427734375 63.40635681152344 C 39.37028121948242 63.40635681152344 36.95662689208984 61.36083221435547 36.92139053344727 58.49641418457031 L 21.99960708618164 58.49641418457031 C 9.849607467651367 58.49641418457031 7.08451716491254e-06 48.64679336547852 7.08451716491254e-06 36.49590301513672 L 7.08451716491254e-06 21.99959373474121 C 7.08451716491254e-06 9.849595069885254 9.849607467651367 -5.319768661138369e-06 21.99960708618164 -5.319768661138369e-06 L 72.77310180664063 -5.319768661138369e-06 C 84.923095703125 -5.319768661138369e-06 94.77271270751953 9.849595069885254 94.77271270751953 21.99959373474121 L 94.77271270751953 36.49590301513672 C 94.77271270751953 48.64679336547852 84.923095703125 58.49641418457031 72.77310180664063 58.49641418457031 L 48.23057174682617 58.49641418457031 C 47.97209930419922 59.47945022583008 47.40777206420898 60.40146636962891 46.52460861206055 61.10999298095703 L 45.05309677124023 62.29170227050781 C 44.09235382080078 63.06292343139648 43.00729751586914 63.40635681152344 41.95013427734375 63.40635681152344 Z" stroke="none" fill="#fff"/>
        </g>
        <g id="Subtração_1" data-name="Subtração 1" transform="translate(63.031 36.277)" fill="none">
          <path d="M58.492,66.978a2.37,2.37,0,0,1-1.46-.5L46.8,58.563c-.028-.022-.056-.044-.082-.067H22a22,22,0,0,1-22-22V24.941H12.917a22.025,22.025,0,0,0,22-22V0H76.4a22,22,0,0,1,22,22V36.5a22,22,0,0,1-22,22H60.113l.73,5.942a2.171,2.171,0,0,1-.531,1.726A2.461,2.461,0,0,1,58.492,66.978Z" stroke="none"/>
          <path d="M 53.81007766723633 56.39934539794922 L 53.33063125610352 52.49640274047852 L 60.11279296875 52.49640274047852 L 76.40010070800781 52.49640274047852 C 80.67417144775391 52.49640274047852 84.69229888916016 50.83211135864258 87.71430206298828 47.81009292602539 C 90.73632049560547 44.78809356689453 92.40061187744141 40.76998519897461 92.40061187744141 36.49591064453125 L 92.40061187744141 21.99960136413574 C 92.40061187744141 17.72596549987793 90.73633575439453 13.7081298828125 87.71435546875 10.68625640869141 C 84.69229888916016 7.664275169372559 80.67414093017578 6.000002384185791 76.40010070800781 6.000002384185791 L 40.7503662109375 6.000002384185791 C 39.22148513793945 20.0056037902832 27.32210159301758 30.9408016204834 12.91681098937988 30.9408016204834 L 6.000011444091797 30.9408016204834 L 6.000011444091797 36.49591064453125 C 6.000011444091797 40.76994705200195 7.664283752441406 44.78809356689453 10.68626594543457 47.81016540527344 C 13.70813846588135 50.83213043212891 17.72595596313477 52.49640274047852 21.99961090087891 52.49640274047852 L 46.71630096435547 52.49640274047852 L 48.84672164916992 52.56300354003906 L 50.46750259399414 53.81576538085938 L 53.81007766723633 56.39934539794922 M 58.49190139770508 66.97800445556641 C 57.96424865722656 66.97800445556641 57.45946502685547 66.80342102050781 57.03210067749023 66.47309112548828 L 46.79821014404297 58.56300354003906 C 46.77030181884766 58.54140090942383 46.74239349365234 58.5189094543457 46.71630096435547 58.49640274047852 L 21.99961090087891 58.49640274047852 C 16.12328338623047 58.49640274047852 10.59868431091309 56.20800399780273 6.443556785583496 52.0527458190918 C 2.288374900817871 47.89741897583008 1.121493278333219e-05 42.37258529663086 1.121493278333219e-05 36.49591064453125 L 1.121493278333219e-05 24.9408016204834 L 12.91681098937988 24.9408016204834 C 25.04743003845215 24.9408016204834 34.9163932800293 15.07142066955566 34.9163932800293 2.940311431884766 L 34.9163932800293 2.227783170383191e-06 L 76.40010070800781 2.227783170383191e-06 C 82.27677154541016 2.227783170383191e-06 87.80162811279297 2.288365840911865 91.95693969726563 6.44354772567749 C 96.11221313476563 10.59869289398193 98.40061187744141 16.12327575683594 98.40061187744141 21.99960136413574 L 98.40061187744141 36.49591064453125 C 98.40061187744141 42.37261962890625 96.11221313476563 47.89749145507813 91.95693969726563 52.0527458190918 C 87.80168151855469 56.20800399780273 82.27683258056641 58.49640274047852 76.40010070800781 58.49640274047852 L 60.11279296875 58.49640274047852 L 60.84270095825195 64.43820190429688 C 60.92088317871094 65.07578277587891 60.73213958740234 65.68887329101563 60.31124877929688 66.16448974609375 C 59.86050033569336 66.67389678955078 59.18037414550781 66.97800445556641 58.49190139770508 66.97800445556641 Z" stroke="none" fill="#fff"/>
        </g>
      </g>
      <text id="Comunicar" transform="translate(1312.943 1679.144)" fill="#fff" font-size="36" font-family="Roboto-Bold, Roboto" font-weight="700" letter-spacing="0.03em"><tspan x="0" y="0">Comunicar</tspan></text>
    </g>
    <g id="Grupo_168" data-name="Grupo 168" transform="translate(-29 93)">
      <rect id="Retângulo_231" data-name="Retângulo 231" width="285.63" height="274.63" rx="21" transform="translate(1115 1470.63) rotate(-90)" fill="#2a7f8a"/>
      <g id="Grupo_164" data-name="Grupo 164" transform="translate(-3 -83.242)">
        <text id="Criar" transform="translate(1213 1503.241)" fill="#fff" font-size="36" font-family="Roboto-Bold, Roboto" font-weight="700" letter-spacing="0.03em"><tspan x="0" y="0">Criar</tspan></text>
        <g id="Grupo_161" data-name="Grupo 161" transform="translate(212 -1240.759)">
          <path id="União_6" data-name="União 6" d="M24.838,13.355h-12.5v0H8a6,6,0,0,1-1.631.225A6.588,6.588,0,0,1,0,6.79,6.588,6.588,0,0,1,6.366,0a6.588,6.588,0,0,1,6.366,6.79,7.182,7.182,0,0,1-.39,2.345v4.221h12.5V8.53a6.791,6.791,0,1,1,8.305,4.825h0a6.839,6.839,0,0,1-3.48,0H24.838v0Zm4.825,0A6.8,6.8,0,0,1,24.838,8.53v4.825Zm-17.322,0V9.134A6.553,6.553,0,0,1,8,13.355Z" transform="translate(1023.828 2602.349)" fill="none" stroke="#fff" stroke-width="6"/>
          <g id="Grupo_10" data-name="Grupo 10" transform="translate(992 2551)">
            <g id="Retângulo_26" data-name="Retângulo 26" transform="translate(20 99)" fill="none" stroke="#fff" stroke-width="6">
              <rect width="62" height="23" rx="11.5" stroke="none"/>
              <rect x="3" y="3" width="56" height="17" rx="8.5" fill="none"/>
            </g>
            <g id="Retângulo_27" data-name="Retângulo 27" transform="translate(20 117)" fill="none" stroke="#fff" stroke-width="6">
              <rect width="62" height="23" rx="11.5" stroke="none"/>
              <rect x="3" y="3" width="56" height="17" rx="8.5" fill="none"/>
            </g>
            <g id="Subtração_5" data-name="Subtração 5" transform="translate(0 0)" fill="none">
              <path d="M19.7,113.825h0a78.313,78.313,0,0,1,1.225-9.545,68.749,68.749,0,0,1,3-10.831A50.846,50.846,0,0,1,6.576,75.438a50.509,50.509,0,1,1,90.455-44.6A50.185,50.185,0,0,1,101,50.5,50.458,50.458,0,0,1,77.765,93.016a68.44,68.44,0,0,1,3.114,11.018,77.839,77.839,0,0,1,1.27,9.775A11.446,11.446,0,0,0,70.87,104.4H30.98A11.439,11.439,0,0,0,19.7,113.825Z" stroke="none"/>
              <path d="M 73.328857421875 98.56751251220703 C 72.96749877929688 97.39864349365234 72.57521057128906 96.25480651855469 72.15332794189453 95.14067077636719 L 70.43226623535156 90.59562683105469 L 74.52082824707031 87.96826934814453 C 80.68056488037109 84.00992584228516 85.82068634033203 78.54296875 89.38574981689453 72.15789031982422 C 91.19434356689453 68.91941070556641 92.59000396728516 65.46174621582031 93.53372955322266 61.88170623779297 C 94.50716400146484 58.18712615966797 95.00072479248047 54.35772705078125 95.00072479248047 50.4998893737793 C 95.00072479248047 44.49066925048828 93.82480621337891 38.66350936889648 91.50572967529297 33.1804084777832 C 89.26470947265625 27.88232803344727 86.05526733398438 23.12284851074219 81.96656799316406 19.03414726257324 C 77.87794494628906 14.94550800323486 73.11844635009766 11.73608779907227 67.82044982910156 9.495048522949219 C 62.33720779418945 7.175908088684082 56.50972747802734 5.999988079071045 50.49988555908203 5.999988079071045 C 44.49066543579102 5.999988079071045 38.66350555419922 7.175908088684082 33.18044662475586 9.494988441467285 C 27.88232612609863 11.73602771759033 23.12282562255859 14.94546794891357 19.03414535522461 19.03414726257324 C 14.94546604156494 23.12282752990723 11.73604583740234 27.88230895996094 9.49506664276123 33.18026733398438 C 7.175926208496094 38.66340637207031 6.000026226043701 44.49056625366211 6.000026226043701 50.4998893737793 C 6.000026226043701 54.42066955566406 6.509546279907227 58.30956649780273 7.514346122741699 62.05824661254883 C 8.488046646118164 65.68996429443359 9.927145957946777 69.19348907470703 11.79128646850586 72.4708251953125 C 15.4697265625 78.93584442138672 20.75846672058105 84.42694854736328 27.08578681945801 88.35048675537109 L 31.25292587280273 90.93450927734375 L 29.55058670043945 95.53279113769531 C 29.1840763092041 96.52279663085938 28.84079933166504 97.53546142578125 28.52174758911133 98.56723785400391 C 29.32628631591797 98.45391845703125 30.14698791503906 98.39548492431641 30.97982597351074 98.39548492431641 L 70.8704833984375 98.39548492431641 C 71.70343780517578 98.39548492431641 72.52405548095703 98.45398712158203 73.328857421875 98.56751251220703 M 19.70088577270508 113.8251113891602 L 19.69890594482422 113.8248672485352 C 19.91690635681152 110.5774459838867 20.32912635803223 107.3662109375 20.92412567138672 104.2803115844727 C 21.65130615234375 100.5059509277344 22.66054534912109 96.86196899414063 23.92380714416504 93.44969177246094 C 16.74734687805176 88.99961090087891 10.74852657318115 82.77086639404297 6.576326370239258 75.43801116943359 C 4.459206104278564 71.71592712402344 2.824986219406128 67.73709106445313 1.719026207923889 63.61200714111328 C 0.578366219997406 59.35648727416992 2.621093699417543e-05 54.94492721557617 2.621093699417543e-05 50.4998893737793 C 2.621093699417543e-05 43.68328857421875 1.335366249084473 37.06974792480469 3.969026327133179 30.84298896789551 C 6.512566089630127 24.82972717285156 10.15378665924072 19.42922782897949 14.79150581359863 14.79150772094727 C 19.42922592163086 10.15378761291504 24.82972526550293 6.51256799697876 30.8430061340332 3.969007968902588 C 37.06978607177734 1.335368037223816 43.68330764770508 -1.193481421069009e-05 50.49988555908203 -1.193481421069009e-05 C 57.31706619262695 -1.193481421069009e-05 63.93092727661133 1.335368037223816 70.15770721435547 3.969007968902588 C 76.17098999023438 6.512588024139404 81.57150268554688 10.15378761291504 86.20920562744141 14.79150772094727 C 90.84696960449219 19.42924880981445 94.48818969726563 24.82974815368652 97.03170776367188 30.84298896789551 C 99.66534423828125 37.06978988647461 101.0007247924805 43.68330764770508 101.0007247924805 50.4998893737793 C 101.0007247924805 54.87344741821289 100.4405288696289 59.21718978881836 99.33572387695313 63.4103889465332 C 98.26346588134766 67.47798919677734 96.67828369140625 71.40534973144531 94.62420654296875 75.08340454101563 C 90.58056640625 82.32558441162109 84.75056457519531 88.52655029296875 77.76450347900391 93.01588439941406 C 79.07506561279297 96.47686767578125 80.12264251708984 100.184211730957 80.87852478027344 104.03369140625 C 81.49976348876953 107.1990661621094 81.92706298828125 110.4878845214844 82.14852905273438 113.8088455200195 C 81.16386413574219 108.3544845581055 76.42160797119141 104.3954849243164 70.8704833984375 104.3954849243164 L 30.97982597351074 104.3954849243164 C 25.42038536071777 104.3954849243164 20.67692565917969 108.3612289428711 19.70088577270508 113.8251113891602 Z" stroke="none" fill="#fff"/>
            </g>
          </g>
        </g>
      </g>
    </g>
    <g id="Grupo_167" data-name="Grupo 167" transform="translate(-29 93)">
      <rect id="Retângulo_246" data-name="Retângulo 246" width="285.63" height="274.63" rx="21" transform="translate(1405 1470.63) rotate(-90)" fill="#2a7f8a"/>
      <g id="Grupo_165" data-name="Grupo 165" transform="translate(-48.319 -62.735)">
        <text id="Educar" transform="translate(1526.318 1484.654)" fill="#fff" font-size="36" font-family="Roboto-Bold, Roboto" font-weight="700" letter-spacing="0.03em"><tspan x="0" y="0">Educar</tspan></text>
        <g id="Grupo_163" data-name="Grupo 163" transform="translate(1512.318 1268.735)">
          <g id="Grupo_158" data-name="Grupo 158" transform="translate(0 50.72)">
            <path id="Caminho_4" data-name="Caminho 4" d="M3.988,0H67.415c3.627,0,6.046,1.754,9.328,6.715l49.621,59.256c.978,4.386-1.253,7.862-4.881,7.862H57.55c-3.627,0-6.212-3.526-8.308-6.567L0,6.567C0,2.94.361,0,3.988,0Z" transform="matrix(0.921, -0.391, 0.391, 0.921, 0, 67.176)" fill="#fff"/>
            <path id="Caminho_3" data-name="Caminho 3" d="M3.988,0H67.415c3.627,0,6.046,1.754,9.328,6.715l49.621,59.256c.978,4.386-1.253,7.862-4.881,7.862H57.55c-3.627,0-6.212-3.526-8.308-6.567L0,6.567C0,2.94.361,0,3.988,0Z" transform="matrix(0.921, -0.391, 0.391, 0.921, 0, 64.987)" fill="#2a7f8a"/>
            <path id="Caminho_2" data-name="Caminho 2" d="M3.988,0H67.415c3.627,0,6.046,1.754,9.328,6.715l49.621,59.256c.978,4.386-1.253,7.862-4.881,7.862H57.55c-3.627,0-6.212-3.526-8.308-6.567L0,6.567C0,2.94.361,0,3.988,0Z" transform="matrix(0.921, -0.391, 0.391, 0.921, 0, 49.465)" fill="#fff"/>
            <path id="Caminho_5" data-name="Caminho 5" d="M4.377.02C-1.86-8.29,7.406-6.124,8.612-2.57A34.709,34.709,0,0,1,9.4,14.6c-1.5,6.569-2.112,4.7-5.022,5.12,1.447.06,4.42-8.065,3.349-14.321A8.251,8.251,0,0,0,4.377.02Z" transform="translate(134.939 67.1)" fill="#fff"/>
            <path id="Caminho_6" data-name="Caminho 6" d="M0,0H53.634L65.389,14.709H11.754Z" transform="matrix(0.921, -0.391, 0.391, 0.921, 14.333, 52.541)" fill="#2a7f8a"/>
          </g>
          <g id="Grupo_157" data-name="Grupo 157" transform="translate(0 25.36)">
            <path id="Caminho_4-2" data-name="Caminho 4" d="M3.988,0H67.415c3.627,0,6.046,1.754,9.328,6.715l49.621,59.256c.978,4.386-1.253,7.862-4.881,7.862H57.55c-3.627,0-6.212-3.526-8.308-6.567L0,6.567C0,2.94.361,0,3.988,0Z" transform="matrix(0.921, -0.391, 0.391, 0.921, 0, 67.176)" fill="#fff"/>
            <path id="Caminho_3-2" data-name="Caminho 3" d="M3.988,0H67.415c3.627,0,6.046,1.754,9.328,6.715l49.621,59.256c.978,4.386-1.253,7.862-4.881,7.862H57.55c-3.627,0-6.212-3.526-8.308-6.567L0,6.567C0,2.94.361,0,3.988,0Z" transform="matrix(0.921, -0.391, 0.391, 0.921, 0, 64.987)" fill="#2a7f8a"/>
            <path id="Caminho_2-2" data-name="Caminho 2" d="M3.988,0H67.415c3.627,0,6.046,1.754,9.328,6.715l49.621,59.256c.978,4.386-1.253,7.862-4.881,7.862H57.55c-3.627,0-6.212-3.526-8.308-6.567L0,6.567C0,2.94.361,0,3.988,0Z" transform="matrix(0.921, -0.391, 0.391, 0.921, 0, 49.465)" fill="#fff"/>
            <path id="Caminho_5-2" data-name="Caminho 5" d="M4.377.02C-1.86-8.29,7.406-6.124,8.612-2.57A34.709,34.709,0,0,1,9.4,14.6c-1.5,6.569-2.112,4.7-5.022,5.12,1.447.06,4.42-8.065,3.349-14.321A8.251,8.251,0,0,0,4.377.02Z" transform="translate(134.939 67.1)" fill="#fff"/>
            <path id="Caminho_6-2" data-name="Caminho 6" d="M0,0H53.634L65.389,14.709H11.754Z" transform="matrix(0.921, -0.391, 0.391, 0.921, 14.333, 52.541)" fill="#2a7f8a"/>
          </g>
          <g id="Grupo_6" data-name="Grupo 6" transform="translate(0 0)">
            <path id="Caminho_4-3" data-name="Caminho 4" d="M3.988,0H67.415c3.627,0,6.046,1.754,9.328,6.715l49.621,59.256c.978,4.386-1.253,7.862-4.881,7.862H57.55c-3.627,0-6.212-3.526-8.308-6.567L0,6.567C0,2.94.361,0,3.988,0Z" transform="matrix(0.921, -0.391, 0.391, 0.921, 0, 67.176)" fill="#fff"/>
            <path id="Caminho_3-3" data-name="Caminho 3" d="M3.988,0H67.415c3.627,0,6.046,1.754,9.328,6.715l49.621,59.256c.978,4.386-1.253,7.862-4.881,7.862H57.55c-3.627,0-6.212-3.526-8.308-6.567L0,6.567C0,2.94.361,0,3.988,0Z" transform="matrix(0.921, -0.391, 0.391, 0.921, 0, 64.987)" fill="#2a7f8a"/>
            <path id="Caminho_2-3" data-name="Caminho 2" d="M3.988,0H67.415c3.627,0,6.046,1.754,9.328,6.715l49.621,59.256c.978,4.386-1.253,7.862-4.881,7.862H57.55c-3.627,0-6.212-3.526-8.308-6.567L0,6.567C0,2.94.361,0,3.988,0Z" transform="matrix(0.921, -0.391, 0.391, 0.921, 0, 49.465)" fill="#fff"/>
            <path id="Caminho_5-3" data-name="Caminho 5" d="M4.377.02C-1.86-8.29,7.406-6.124,8.612-2.57A34.709,34.709,0,0,1,9.4,14.6c-1.5,6.569-2.112,4.7-5.022,5.12,1.447.06,4.42-8.065,3.349-14.321A8.251,8.251,0,0,0,4.377.02Z" transform="translate(134.939 67.1)" fill="#fff"/>
            <path id="Caminho_6-3" data-name="Caminho 6" d="M0,0H53.634L65.389,14.709H11.754Z" transform="matrix(0.921, -0.391, 0.391, 0.921, 14.333, 52.541)" fill="#2a7f8a"/>
          </g>
        </g>
      </g>
    </g>
  </g>
</svg>
