<svg xmlns="http://www.w3.org/2000/svg" width="228.244" height="92.567" viewBox="0 0 228.244 92.567">
  <g id="Grupo_47" data-name="Grupo 47" transform="translate(9171 1435)">
    <g id="Grupo_46" data-name="Grupo 46" transform="translate(-9133.735 -1360.937)">
      <g id="Grupo_35" data-name="Grupo 35" transform="translate(0 3.261)">
        <line id="Linha_6" data-name="Linha 6" y1="11.179" x2="3.348" fill="none" stroke="#3a7b82" stroke-miterlimit="10" stroke-width="2"/>
        <line id="Linha_7" data-name="Linha 7" x1="3.348" y1="11.179" transform="translate(3.581)" fill="none" stroke="#3a7b82" stroke-miterlimit="10" stroke-width="2"/>
        <line id="Linha_8" data-name="Linha 8" x2="4.813" transform="translate(1 7.734)" fill="none" stroke="#3a7b82" stroke-miterlimit="10" stroke-width="2"/>
      </g>
      <g id="Grupo_36" data-name="Grupo 36" transform="translate(20.02 3.224)">
        <line id="Linha_9" data-name="Linha 9" x2="5.134" transform="translate(0.223 0.473)" fill="none" stroke="#3a7b82" stroke-miterlimit="10" stroke-width="2"/>
        <line id="Linha_10" data-name="Linha 10" x2="5.134" transform="translate(0.223 5.441)" fill="none" stroke="#3a7b82" stroke-miterlimit="10" stroke-width="2"/>
        <line id="Linha_11" data-name="Linha 11" x2="5.134" transform="translate(0.223 10.759)" fill="none" stroke="#3a7b82" stroke-miterlimit="10" stroke-width="2"/>
        <line id="Linha_12" data-name="Linha 12" y2="11.223" fill="none" stroke="#3a7b82" stroke-miterlimit="10" stroke-width="2"/>
      </g>
      <line id="Linha_13" data-name="Linha 13" y1="2.096" x2="1.591" transform="translate(20.447 0)" fill="none" stroke="#3a7b82" stroke-miterlimit="10" stroke-width="2"/>
      <line id="Linha_14" data-name="Linha 14" x1="1.591" y1="2.096" transform="translate(22.233 0)" fill="none" stroke="#3a7b82" stroke-miterlimit="10" stroke-width="2"/>
      <line id="Linha_15" data-name="Linha 15" y2="11.223" transform="translate(47.658 3.224)" fill="none" stroke="#3a7b82" stroke-miterlimit="10" stroke-width="2"/>
      <g id="Grupo_37" data-name="Grupo 37" transform="translate(28.133 3.224)">
        <line id="Linha_16" data-name="Linha 16" y2="11.223" transform="translate(0.097)" fill="none" stroke="#3a7b82" stroke-miterlimit="10" stroke-width="2"/>
        <line id="Linha_17" data-name="Linha 17" y2="11.223" transform="translate(6.618)" fill="none" stroke="#3a7b82" stroke-miterlimit="10" stroke-width="2"/>
        <line id="Linha_18" data-name="Linha 18" x1="6.686" y1="11.179" transform="translate(0 0.036)" fill="none" stroke="#3a7b82" stroke-miterlimit="10" stroke-width="2"/>
      </g>
      <path id="Caminho_19" data-name="Caminho 19" d="M914.593,380.484a2.99,2.99,0,0,1-5.968,0v-4.93a2.99,2.99,0,0,1,5.968,0" transform="translate(-869.876 -369.286)" fill="none" stroke="#3a7b82" stroke-miterlimit="10" stroke-width="2"/>
      <path id="Caminho_20" data-name="Caminho 20" d="M849.775,378.534h3.164l.029,1.95a2.99,2.99,0,0,1-5.968,0v-4.93a2.99,2.99,0,0,1,5.968,0" transform="translate(-836.956 -369.286)" fill="none" stroke="#3a7b82" stroke-miterlimit="10" stroke-width="2"/>
      <g id="Grupo_38" data-name="Grupo 38" transform="translate(51.238 3.261)">
        <line id="Linha_19" data-name="Linha 19" y1="11.179" x2="3.348" fill="none" stroke="#3a7b82" stroke-miterlimit="10" stroke-width="2"/>
        <line id="Linha_20" data-name="Linha 20" x1="3.348" y1="11.179" transform="translate(3.581)" fill="none" stroke="#3a7b82" stroke-miterlimit="10" stroke-width="2"/>
        <line id="Linha_21" data-name="Linha 21" x2="4.813" transform="translate(1 7.734)" fill="none" stroke="#3a7b82" stroke-miterlimit="10" stroke-width="2"/>
      </g>
      <g id="Grupo_39" data-name="Grupo 39" transform="translate(76.149 3.224)">
        <line id="Linha_22" data-name="Linha 22" x2="5.133" transform="translate(0.223 0.473)" fill="none" stroke="#3a7b82" stroke-miterlimit="10" stroke-width="2"/>
        <line id="Linha_23" data-name="Linha 23" x2="5.133" transform="translate(0.223 5.441)" fill="none" stroke="#3a7b82" stroke-miterlimit="10" stroke-width="2"/>
        <line id="Linha_24" data-name="Linha 24" x2="5.133" transform="translate(0.223 10.759)" fill="none" stroke="#3a7b82" stroke-miterlimit="10" stroke-width="2"/>
        <line id="Linha_25" data-name="Linha 25" y2="11.223" fill="none" stroke="#3a7b82" stroke-miterlimit="10" stroke-width="2"/>
      </g>
      <g id="Grupo_40" data-name="Grupo 40" transform="translate(92.879 3.224)">
        <line id="Linha_26" data-name="Linha 26" y2="11.223" transform="translate(0.097)" fill="none" stroke="#3a7b82" stroke-miterlimit="10" stroke-width="2"/>
        <line id="Linha_27" data-name="Linha 27" y2="11.223" transform="translate(6.618)" fill="none" stroke="#3a7b82" stroke-miterlimit="10" stroke-width="2"/>
        <line id="Linha_28" data-name="Linha 28" x1="6.686" y1="11.179" transform="translate(0 0.036)" fill="none" stroke="#3a7b82" stroke-miterlimit="10" stroke-width="2"/>
      </g>
      <g id="Grupo_41" data-name="Grupo 41" transform="translate(120.41 3.261)">
        <line id="Linha_29" data-name="Linha 29" y1="11.179" x2="3.348" fill="none" stroke="#3a7b82" stroke-miterlimit="10" stroke-width="2"/>
        <line id="Linha_30" data-name="Linha 30" x1="3.348" y1="11.179" transform="translate(3.581)" fill="none" stroke="#3a7b82" stroke-miterlimit="10" stroke-width="2"/>
        <line id="Linha_31" data-name="Linha 31" x2="4.813" transform="translate(1 7.734)" fill="none" stroke="#3a7b82" stroke-miterlimit="10" stroke-width="2"/>
      </g>
      <g id="Grupo_42" data-name="Grupo 42" transform="translate(138.576 3.261)">
        <line id="Linha_32" data-name="Linha 32" y1="11.179" x2="3.348" fill="none" stroke="#3a7b82" stroke-miterlimit="10" stroke-width="2"/>
        <line id="Linha_33" data-name="Linha 33" x1="3.348" y1="11.179" transform="translate(3.581)" fill="none" stroke="#3a7b82" stroke-miterlimit="10" stroke-width="2"/>
        <line id="Linha_34" data-name="Linha 34" x2="4.813" transform="translate(1 7.734)" fill="none" stroke="#3a7b82" stroke-miterlimit="10" stroke-width="2"/>
      </g>
      <line id="Linha_35" data-name="Linha 35" y2="11.223" transform="translate(88.648 3.224)" fill="none" stroke="#3a7b82" stroke-miterlimit="10" stroke-width="2"/>
      <g id="Grupo_43" data-name="Grupo 43" transform="translate(112.142 3.26)">
        <line id="Linha_36" data-name="Linha 36" x1="3.348" y2="11.179" transform="translate(3.581 0)" fill="none" stroke="#3a7b82" stroke-miterlimit="10" stroke-width="2"/>
        <line id="Linha_37" data-name="Linha 37" x2="3.348" y2="11.179" fill="none" stroke="#3a7b82" stroke-miterlimit="10" stroke-width="2"/>
      </g>
      <g id="Grupo_44" data-name="Grupo 44" transform="translate(103.379 3.464)">
        <path id="Caminho_21" data-name="Caminho 21" d="M1053.731,380.484a3.2,3.2,0,0,1-6.356,0v-4.93a3.2,3.2,0,0,1,6.356,0" transform="translate(-1047.375 -372.75)" fill="none" stroke="#3a7b82" stroke-miterlimit="10" stroke-width="2"/>
        <path id="Caminho_22" data-name="Caminho 22" d="M1047.375,380.484a3.2,3.2,0,0,0,6.356,0v-4.93a3.2,3.2,0,0,0-6.356,0" transform="translate(-1047.375 -372.75)" fill="none" stroke="#3a7b82" stroke-miterlimit="10" stroke-width="2"/>
      </g>
      <g id="Grupo_45" data-name="Grupo 45" transform="translate(148.213 3.464)">
        <path id="Caminho_23" data-name="Caminho 23" d="M1149.981,380.484a3.2,3.2,0,0,1-6.356,0v-4.93a3.2,3.2,0,0,1,6.356,0" transform="translate(-1143.625 -372.75)" fill="none" stroke="#3a7b82" stroke-miterlimit="10" stroke-width="2"/>
        <path id="Caminho_24" data-name="Caminho 24" d="M1143.625,380.484a3.2,3.2,0,0,0,6.356,0v-4.93a3.2,3.2,0,0,0-6.356,0" transform="translate(-1143.625 -372.75)" fill="none" stroke="#3a7b82" stroke-miterlimit="10" stroke-width="2"/>
      </g>
      <path id="Caminho_25" data-name="Caminho 25" d="M1111.093,380.484a2.99,2.99,0,0,1-5.968,0v-4.93a2.99,2.99,0,0,1,5.968,0" transform="translate(-974.846 -369.286)" fill="none" stroke="#3a7b82" stroke-miterlimit="10" stroke-width="2"/>
      <path id="Caminho_26" data-name="Caminho 26" d="M966.583,383.241V372.688l3.12.029a2.9,2.9,0,0,1,2.984,2.8v4.93a2.9,2.9,0,0,1-2.984,2.8Z" transform="translate(-900.837 -369.253)" fill="none" stroke="#3a7b82" stroke-miterlimit="10" stroke-width="2"/>
      <path id="Caminho_27" data-name="Caminho 27" d="M1110.329,395.375v1.6s1.412-.058,1.412,1.063c0,.917-1.147.857-2.46.83" transform="translate(-977.066 -381.372)" fill="none" stroke="#3a7b82" stroke-miterlimit="10" stroke-width="2"/>
      <path id="Caminho_28" data-name="Caminho 28" d="M1125.031,367.5a1.783,1.783,0,0,1,2.78-.422c1.732,1.339,2.082-.582,2.082-.582" transform="translate(-985.479 -365.947)" fill="none" stroke="#3a7b82" stroke-miterlimit="10" stroke-width="2"/>
    </g>
    <g id="Grupo_34" data-name="Grupo 34" transform="translate(-9171 -1435)">
      <path id="Caminho_15" data-name="Caminho 15" d="M719.579,442.516a31.908,31.908,0,1,0,19.27,57.324,16.008,16.008,0,0,1-4.365-11.442l-.063-.075a20.334,20.334,0,1,1,5.5-13.9c0,.2-.009.4-.015.6l.015-.021s-.025,9.743,5.84,17.639a31.9,31.9,0,0,0-26.187-50.129" transform="translate(-687.671 -442.139)" fill="#3e7b80"/>
      <rect id="Ret창ngulo_117" data-name="Ret창ngulo 117" width="37.73" height="10.248" transform="translate(77.323 25.996)" fill="#3e7b80"/>
      <path id="Caminho_16" data-name="Caminho 16" d="M846.167,454.077a20.259,20.259,0,0,1,12.322,4.158H873.66a31.9,31.9,0,0,0-46.68-9.3c2.1,3.54,3.445,8.439,4.178,11.757a20.292,20.292,0,0,1,15.009-6.611" transform="translate(-762.089 -442.139)" fill="#3e7b80"/>
      <path id="Caminho_17" data-name="Caminho 17" d="M850.914,483.77a20.352,20.352,0,1,1-39.506,3.687c-.375-5.988-4.008-12.45-6.008-15.587a31.9,31.9,0,1,0,57.454,11.9Z" transform="translate(-747.501 -457.819)" fill="#3e7b80"/>
      <rect id="Ret창ngulo_118" data-name="Ret창ngulo 118" width="12.577" height="64.281" transform="translate(125.301 0.144)" fill="#50a9ad"/>
      <path id="Caminho_18" data-name="Caminho 18" d="M1071.076,441.995v52.157c-.394.023-.807.054-1.245.1-8.833.838-14.83-4.906-18.194-9.586a21.493,21.493,0,0,1-3.75-9.026c-6.516-39.338-41.674-33.644-41.674-33.644v0h-4.543v64.281h12.577v-52.4c4.42.5,18.816,3.682,22.281,24.03a30.956,30.956,0,0,0,2.409,7.983c9.951,21.185,31.351,20.381,31.351,20.381h.788v0h12.577V441.995Z" transform="translate(-855.409 -441.706)" fill="#50a9ad"/>
    </g>
  </g>
</svg>
